<svg id="Layer_1" data-name="Layer 1" xmlns="http://www.w3.org/2000/svg" viewBox="0 0 360 432"><defs><style>.cls-1{fill:#fff;}.cls-2{fill-rule:evenodd;}.cls-3{font-size:39.76px;fill:#231f20;font-family:AvenirNext-Bold, Avenir Next;font-weight:700;letter-spacing:-0.01em;}.cls-4{letter-spacing:0em;}.cls-5{font-family:AvenirNext-UltraLight, Avenir Next;font-weight:100;letter-spacing:0em;}</style></defs><rect class="cls-1" width="360" height="432"/><path class="cls-2" d="M246.35,336.37a3.46,3.46,0,0,1-1,2.46,3.55,3.55,0,0,1-5,0,3.5,3.5,0,0,1,0-4.82,3.48,3.48,0,0,1,5,0A3.45,3.45,0,0,1,246.35,336.37Zm9.93,3.59h4.23V302.87h-4.23ZM305,321.39a19.54,19.54,0,0,1-1.38,7.41,17.32,17.32,0,0,1-9.84,9.78,20.39,20.39,0,0,1-7.63,1.4,20.05,20.05,0,0,1-7.58-1.4,17.66,17.66,0,0,1-5.94-3.89,17.47,17.47,0,0,1-3.86-5.89,20.56,20.56,0,0,1,0-14.81,17.05,17.05,0,0,1,3.86-5.86,18,18,0,0,1,5.94-3.85,20.05,20.05,0,0,1,7.58-1.4,20.39,20.39,0,0,1,7.63,1.4,18,18,0,0,1,6,3.85,17.22,17.22,0,0,1,3.87,5.86A19.46,19.46,0,0,1,305,321.39Zm-4.29,0a16.86,16.86,0,0,0-1-5.89,13.2,13.2,0,0,0-2.91-4.72,14,14,0,0,0-4.59-3.18,15,15,0,0,0-6.06-1.17,14.71,14.71,0,0,0-6,1.17,14.17,14.17,0,0,0-4.56,3.18,13.49,13.49,0,0,0-2.91,4.72,18,18,0,0,0,0,11.78,13.36,13.36,0,0,0,7.47,7.86,15.05,15.05,0,0,0,6,1.13,15.37,15.37,0,0,0,6.06-1.13A13.56,13.56,0,0,0,296.8,332a13.33,13.33,0,0,0,2.91-4.73A16.82,16.82,0,0,0,300.71,321.39ZM148.09,340h8.16V286.48h-8.16Zm-23.93-37a18.54,18.54,0,1,0,18.65,18.53A18.61,18.61,0,0,0,124.16,303Zm0,29.64a11.18,11.18,0,1,1,11.25-11.17A11.22,11.22,0,0,1,124.16,332.59ZM182,303a18.66,18.66,0,0,0-10.67,3.34V286.48h-8.18V340h8.18v-3.29A18.58,18.58,0,1,0,182,303Zm0,29.64a11.23,11.23,0,0,1-10.67-7.65,11,11,0,0,1,0-7.05A11.23,11.23,0,1,1,182,332.59ZM74.44,286.47H55V340H74.44a26.75,26.75,0,1,0,0-53.5Zm0,45.39H63.16V294.58H74.44a18.64,18.64,0,1,1,0,37.28ZM230.51,303l-10.63,23.75L209.25,303h-8.92l15.09,33.7-3.7,8.28a4.36,4.36,0,0,1-5.74,2.19l-1.17-.51-3.3,7.34h0l2.82,1.25a10.61,10.61,0,0,0,13.94-5.32c0-.05,19.32-42.91,21.14-46.94Zm31.35-13.09a3.48,3.48,0,0,1-1,2.47,3.57,3.57,0,0,1-5,0,3.47,3.47,0,0,1-1-2.47,3.43,3.43,0,0,1,1-2.35,3.48,3.48,0,0,1,5,0A3.44,3.44,0,0,1,261.86,289.89ZM305,60V234.37H279.07c-48.41,0-87.87-39.15-87.87-87.19S230.66,60,279.07,60ZM80.93,60c48.41,0,87.88,39.15,87.88,87.18s-39.47,87.19-87.88,87.19H55V60Z"/><text class="cls-3" transform="translate(86.73 401)">C<tspan class="cls-4" x="27.19" y="0">ODE</tspan><tspan class="cls-5" x="115.93" y="0">LAB</tspan></text></svg>